<?xml version="1.0" encoding="iso-8859-1"?>
<!-- Generator: Adobe Illustrator 19.0.0, SVG Export Plug-In . SVG Version: 6.00 Build 0)  -->
<svg version="1.1" id="Layer_1" xmlns="http://www.w3.org/2000/svg" xmlns:xlink="http://www.w3.org/1999/xlink" x="0px" y="0px"
	 viewBox="0 0 512 512" style="enable-background:new 0 0 512 512;" xml:space="preserve">
<g>
	<g>
		<path d="M346.351,337.141c-7.364-7.363-17.154-11.418-27.566-11.418c-10.413,0-20.203,4.055-27.567,11.419l-41.754,41.753V234.97
			c0-21.497-17.489-38.985-38.985-38.985c-21.497,0-38.985,17.489-38.985,38.985v143.925l-41.754-41.755
			c-7.364-7.363-17.154-11.418-27.567-11.418c-10.412,0-20.203,4.055-27.567,11.419c-7.362,7.364-11.417,17.153-11.417,27.566
			s4.055,20.203,11.418,27.567l108.307,108.306c7.364,7.363,17.154,11.418,27.566,11.418c10.412,0,20.202-4.055,27.565-11.419
			l108.306-108.305c7.363-7.364,11.418-17.154,11.418-27.567C357.769,354.296,353.714,344.506,346.351,337.141z M331.927,377.852
			L223.622,486.157c-3.512,3.511-8.18,5.444-13.144,5.444s-9.632-1.934-13.143-5.444L89.029,377.852
			c-3.511-3.512-5.444-8.179-5.444-13.144c0-4.965,1.934-9.633,5.443-13.144c3.512-3.511,8.179-5.444,13.144-5.444
			c4.965,0,9.633,1.934,13.144,5.444l59.165,59.166c2.917,2.917,7.304,3.789,11.115,2.211c3.81-1.579,6.296-5.299,6.296-9.423
			V234.97c0-10.249,8.338-18.587,18.587-18.587c10.249,0,18.587,8.338,18.587,18.587v168.548c0,4.126,2.485,7.844,6.296,9.423
			c3.81,1.58,8.198,0.707,11.115-2.211l59.165-59.166c3.511-3.511,8.179-5.444,13.144-5.444c4.965,0,9.633,1.934,13.143,5.443
			c3.511,3.512,5.444,8.18,5.444,13.145C337.371,369.673,335.438,374.341,331.927,377.852z"/>
	</g>
</g>
<g>
	<g>
		<path d="M277.492,406.875c-3.984-3.983-10.442-3.983-14.425,0l-1.728,1.728c-3.983,3.984-3.983,10.442,0,14.425
			c1.991,1.992,4.602,2.987,7.212,2.987s5.221-0.995,7.213-2.987l1.728-1.728C281.475,417.316,281.476,410.858,277.492,406.875z"/>
	</g>
</g>
<g>
	<g>
		<path d="M255.684,428.683c-3.984-3.983-10.442-3.983-14.425,0l-38.367,38.367c-3.983,3.984-3.983,10.442,0,14.425
			c1.991,1.992,4.602,2.987,7.212,2.987c2.611,0,5.221-0.996,7.213-2.987l38.367-38.367
			C259.667,439.124,259.667,432.666,255.684,428.683z"/>
	</g>
</g>
<g>
	<g>
		<path d="M437.395,119.724L329.087,11.418C321.724,4.055,311.933,0,301.521,0s-20.202,4.055-27.567,11.419L165.649,119.724
			c-7.364,7.363-11.42,17.153-11.42,27.567c0,10.413,4.055,20.204,11.419,27.567c7.364,7.363,17.153,11.418,27.566,11.418
			s20.203-4.055,27.567-11.419l41.753-41.753V277.03c0,21.497,17.489,38.985,38.985,38.985c21.497,0,38.985-17.489,38.987-38.987
			V133.104l41.753,41.755c7.364,7.363,17.154,11.418,27.567,11.418c10.412,0,20.203-4.055,27.567-11.419
			c7.362-7.364,11.417-17.154,11.417-27.566S444.758,127.089,437.395,119.724z M422.971,160.435
			c-3.512,3.511-8.179,5.444-13.144,5.444c-4.965,0-9.633-1.933-13.144-5.443l-59.165-59.166c-2.916-2.917-7.306-3.79-11.115-2.211
			c-3.81,1.579-6.296,5.299-6.296,9.423V277.03c0,10.249-8.338,18.587-18.587,18.587s-18.587-8.338-18.587-18.587V108.482
			c0-4.126-2.485-7.844-6.296-9.423c-1.263-0.523-2.587-0.777-3.901-0.777c-2.654,0-5.263,1.037-7.213,2.988l-59.165,59.166
			c-3.512,3.511-8.18,5.444-13.144,5.444c-4.964,0-9.632-1.934-13.143-5.444s-5.444-8.179-5.444-13.144s1.933-9.633,5.444-13.144
			L288.377,25.843c3.512-3.511,8.18-5.444,13.144-5.444c4.965,0,9.633,1.934,13.144,5.443L422.97,134.147
			c3.511,3.512,5.444,8.179,5.444,13.144S426.481,156.924,422.971,160.435z"/>
	</g>
</g>
<g>
</g>
<g>
</g>
<g>
</g>
<g>
</g>
<g>
</g>
<g>
</g>
<g>
</g>
<g>
</g>
<g>
</g>
<g>
</g>
<g>
</g>
<g>
</g>
<g>
</g>
<g>
</g>
<g>
</g>
</svg>
